<svg width="250" height="50" viewBox="0 0 250 50" fill="none" xmlns="http://www.w3.org/2000/svg">
<g clip-path="url(#clip0_27_123)">
<path d="M42.3806 10.9709C46.4123 10.9709 48.9136 13.4637 48.9136 16.6812C48.9136 18.9208 47.7171 20.7151 45.801 21.5533L52.3081 30.4287L52.1693 30.5684H48.3587L48.22 30.4287L42.2418 22.3959H40.1826V30.4287L40.0439 30.5684H37.096L36.9573 30.4287V11.1106L37.096 10.9709H42.3806ZM40.1826 19.1478H42.3806C44.1883 19.1478 45.2461 18.2529 45.2461 16.6856C45.2461 15.1183 44.1883 14.2495 42.3806 14.2495H40.1826V19.1478Z" fill="#005AAA"/>
<path d="M60.0073 10.9709C64.039 10.9709 66.5404 13.4637 66.5404 16.6812C66.5404 18.9208 65.3438 20.7151 63.4277 21.5533L69.9348 30.4287L69.7961 30.5684H65.9855L65.8467 30.4287L59.8685 22.3959H57.8093V30.4287L57.6706 30.5684H54.7227L54.584 30.4287V11.1106L54.7227 10.9709H60.0073ZM57.8093 19.1478H60.0073C61.815 19.1478 62.8728 18.2529 62.8728 16.6856C62.8728 15.1183 61.815 14.2495 60.0073 14.2495H57.8093V19.1478Z" fill="#005AAA"/>
<path d="M82.9143 10.9709L83.1917 11.1106L89.6425 19.0605L96.0672 11.1106L96.3446 10.9709H99.2362L99.3749 11.1106V30.4287L99.2362 30.5684H96.2623L96.1235 30.4287V15.926L89.7812 23.7405H89.5037L83.1354 15.9303V30.4287L82.9967 30.5684H80.0488L79.91 30.4287V11.1106L80.0488 10.9709H82.9143Z" fill="#005AAA"/>
<path d="M115.194 29.3373C113.941 30.1755 111.995 30.9875 110.022 30.9875C105.769 30.9875 102.626 27.8224 102.626 23.8758C102.626 20.069 105.266 16.9868 109.354 16.9868C113.052 16.9868 115.359 20.1781 115.359 23.4829C115.359 23.9326 115.359 24.2382 115.22 24.6573L114.999 24.797H105.908C106.298 26.8401 107.88 28.0451 110.022 28.0451C111.717 28.0451 113.555 27.3727 115.055 26.0281L115.194 26.1678V29.3373ZM112.107 22.3391C111.968 21.0251 110.772 19.9293 109.354 19.9293C107.521 19.9293 106.437 21.0207 106.016 22.3391H112.107Z" fill="#005AAA"/>
<path d="M129.288 21.8327C127.896 20.6278 126.396 20.1257 124.978 20.1257C122.559 20.1257 121.059 21.8327 121.059 23.9893C121.059 26.146 122.559 27.853 124.978 27.853C126.396 27.853 127.896 27.3509 129.288 26.146L129.426 26.2857V29.5905C128.312 30.4287 126.786 30.9919 124.978 30.9919C120.669 30.9919 117.747 27.8573 117.747 23.9937C117.747 20.1301 120.665 16.9955 124.978 16.9955C126.786 16.9955 128.316 17.5543 129.426 18.3969V21.7017L129.288 21.8327Z" fill="#005AAA"/>
<path d="M135.625 10.9709L135.764 11.1106V17.9691C136.735 17.4103 137.988 16.9868 139.241 16.9868C143.411 16.9868 145.497 19.3661 145.497 23.1468V30.4287L145.358 30.5684H142.41L142.271 30.4287V23.5135C142.271 21.2739 141.157 20.1257 139.072 20.1257C137.793 20.1257 136.514 20.6583 135.764 21.5271V30.4331L135.625 30.5728H132.678L132.539 30.4331V11.1106L132.678 10.9709H135.625Z" fill="#005AAA"/>
<path d="M150.278 17.8294C151.111 17.4103 152.225 16.9912 153.755 16.9912C156.811 16.9912 159.369 18.8117 159.369 22.5923V30.4287L159.23 30.5684H156.256L156.118 30.4287V30.0096C155.09 30.7081 153.894 30.9919 152.918 30.9919C150.668 30.9919 148.332 29.8699 148.332 27.1021C148.332 23.4043 152.142 22.2562 156.118 22.0335C156.118 20.8592 155.147 19.9336 153.616 19.9336C152.086 19.9336 150.725 20.4357 149.056 21.5577L148.917 21.418L150.278 17.8294ZM156.113 24.522C153.196 24.6617 151.666 25.5304 151.666 26.7615C151.666 27.6303 152.359 28.0494 153.304 28.0494C154.28 28.0494 155.138 27.77 156.113 27.2112V24.522Z" fill="#005AAA"/>
<path d="M166.539 14.0487L166.678 14.2146V17.4059H171.681L171.82 17.5456V20.5405L171.681 20.6802H166.678V24.8843C166.678 27.1239 167.649 27.8529 168.763 27.8529C169.544 27.8529 170.597 27.6565 171.681 26.875L171.82 27.0147V30.1493C171.07 30.5989 169.652 30.9875 168.763 30.9875C165.23 30.9875 163.427 28.8047 163.427 25.1637V20.6845H161.203L161.064 20.5448V17.55L161.203 17.4103H163.427V14.1884L163.566 14.0487H166.539Z" fill="#005AAA"/>
<path d="M177.469 17.4103L177.607 17.55V17.9691C178.578 17.4103 179.831 16.9868 181.084 16.9868C181.916 16.9868 182.753 17.1265 183.585 17.5456L183.724 20.8199L183.585 20.9596C182.753 20.2611 181.613 20.1214 180.915 20.1214C179.636 20.1214 178.357 20.654 177.607 21.5227V30.4287L177.469 30.5684H174.521L174.382 30.4287V17.55L174.521 17.4103H177.469Z" fill="#005AAA"/>
<path d="M198.789 23.9894C198.789 27.9097 195.732 30.9875 191.839 30.9875C187.946 30.9875 184.89 27.9097 184.89 23.9894C184.89 20.069 187.946 16.9912 191.839 16.9912C195.732 16.9912 198.789 20.069 198.789 23.9894ZM188.198 23.9894C188.198 26.2289 189.698 27.853 191.839 27.853C193.951 27.853 195.455 26.2289 195.455 23.9894C195.455 21.7498 193.955 20.1257 191.839 20.1257C189.698 20.1257 188.198 21.7498 188.198 23.9894Z" fill="#005AAA"/>
<path d="M205.157 17.4103L205.296 17.55V17.9691C206.267 17.4103 207.52 16.9868 208.773 16.9868C212.943 16.9868 215.028 19.3661 215.028 23.1468V30.4287L214.89 30.5684H211.942L211.803 30.4287V23.5135C211.803 21.2739 210.689 20.1257 208.604 20.1257C207.325 20.1257 206.046 20.6583 205.296 21.5271V30.4331L205.157 30.5728H202.209L202.071 30.4331V17.55L202.209 17.4103H205.157Z" fill="#005AAA"/>
<path d="M220.504 11.8091L222.532 13.8261V14.1055L220.504 16.1486H220.226L218.197 14.1055V13.8261L220.226 11.8091H220.504ZM221.839 17.4103L221.978 17.55V30.4287L221.839 30.5684H218.891L218.752 30.4287V17.55L218.891 17.4103H221.839Z" fill="#005AAA"/>
<path d="M236.795 21.8327C235.403 20.6278 233.904 20.1257 232.486 20.1257C230.067 20.1257 228.567 21.8327 228.567 23.9893C228.567 26.146 230.067 27.853 232.486 27.853C233.904 27.853 235.403 27.3509 236.795 26.146L236.934 26.2857V29.5905C235.82 30.4287 234.294 30.9919 232.486 30.9919C228.177 30.9919 225.255 27.8573 225.255 23.9937C225.255 20.1301 228.172 16.9955 232.486 16.9955C234.294 16.9955 235.824 17.5543 236.934 18.3969V21.7017L236.795 21.8327Z" fill="#005AAA"/>
<path d="M248.582 21.4136C247.082 20.4357 245.804 20.069 244.412 20.069C243.411 20.069 242.773 20.4881 242.773 21.1342C242.773 23.0682 250.004 21.4442 250.004 26.6786C250.004 29.0579 247.919 30.9919 244.581 30.9919C242.912 30.9919 240.827 30.5728 239.578 29.7302V26.5083L239.717 26.3686C241.247 27.3465 243.055 27.9097 244.581 27.9097C246.168 27.9097 246.666 27.4906 246.666 26.6786C246.666 24.4958 239.435 26.0892 239.435 21.1342C239.435 18.8946 241.382 16.9912 244.412 16.9912C246.189 16.9912 247.611 17.4103 248.721 18.1132V21.2783L248.582 21.4136Z" fill="#005AAA"/>
<path d="M41.5352 47.5945C41.5612 47.5247 41.5872 47.4548 41.6176 47.3893C41.6479 47.3238 41.6783 47.2584 41.7129 47.1972L45.3198 40.7797C45.3545 40.723 45.3892 40.688 45.4238 40.6749C45.4585 40.6618 45.5062 40.6531 45.5669 40.6531H46.0264V49.8909H45.4412V42.0196C45.4412 41.9061 45.4455 41.7882 45.4585 41.6616L41.8473 48.1184C41.7866 48.2319 41.6999 48.2887 41.5872 48.2887H41.4832C41.3748 48.2887 41.2881 48.2319 41.2231 48.1184L37.5165 41.6528C37.5295 41.7794 37.5339 41.9017 37.5339 42.0196V49.8952H36.9573V40.6575H37.4125C37.4732 40.6575 37.5208 40.6662 37.5599 40.6793C37.5945 40.6924 37.6336 40.7273 37.6682 40.7841L41.3705 47.2103C41.4312 47.3282 41.4875 47.4592 41.5352 47.5945Z" fill="#3C3C3C"/>
<path d="M52.5509 49.8952C52.4208 49.8952 52.3428 49.8341 52.3124 49.7118L52.2214 48.8824C52.0436 49.057 51.8702 49.2142 51.6925 49.3539C51.5191 49.4936 51.3327 49.6114 51.1463 49.7075C50.9555 49.8035 50.7518 49.8777 50.5307 49.9258C50.3096 49.9738 50.0668 50 49.8024 50C49.5813 50 49.3688 49.9694 49.1608 49.9039C48.9527 49.8385 48.7706 49.738 48.6102 49.6027C48.4498 49.4674 48.3197 49.2927 48.2244 49.0832C48.129 48.8736 48.077 48.6204 48.077 48.3236C48.077 48.0485 48.155 47.7953 48.3111 47.5596C48.4671 47.3238 48.7099 47.1186 49.0394 46.944C49.3688 46.7694 49.798 46.6297 50.3182 46.5249C50.8385 46.4201 51.4671 46.359 52.1954 46.3416V45.6605C52.1954 45.058 52.0653 44.5953 51.8095 44.2722C51.5538 43.9492 51.1723 43.7876 50.6651 43.7876C50.3529 43.7876 50.0885 43.8313 49.8717 43.9186C49.655 44.0059 49.4686 44.102 49.3168 44.2067C49.1651 44.3115 49.0437 44.4076 48.9483 44.4949C48.853 44.5822 48.7749 44.6258 48.7099 44.6258C48.6232 44.6258 48.5582 44.5866 48.5148 44.508L48.4064 44.3202C48.7446 43.9797 49.1001 43.7221 49.4686 43.5475C49.837 43.3729 50.2619 43.2856 50.7344 43.2856C51.0812 43.2856 51.3847 43.3423 51.6405 43.4515C51.9006 43.5606 52.113 43.7222 52.2864 43.9273C52.4555 44.1325 52.5855 44.3857 52.6722 44.6782C52.7589 44.9707 52.8023 45.2982 52.8023 45.6605V49.8908H52.5509V49.8952ZM49.9584 49.5503C50.2099 49.5503 50.4396 49.5241 50.6477 49.4674C50.8558 49.415 51.0509 49.3364 51.233 49.2404C51.4107 49.1443 51.5798 49.0264 51.7358 48.8911C51.8919 48.7558 52.0436 48.6117 52.1954 48.4545V46.765C51.5798 46.7825 51.0552 46.8305 50.6087 46.9047C50.1665 46.9789 49.8024 47.0837 49.5119 47.2147C49.2258 47.3457 49.0134 47.5028 48.8746 47.6818C48.7402 47.8608 48.6709 48.0704 48.6709 48.2974C48.6709 48.5157 48.7056 48.7034 48.7793 48.8605C48.8486 49.0177 48.944 49.1487 49.061 49.2535C49.1781 49.3539 49.3125 49.4324 49.4686 49.4805C49.629 49.5241 49.7894 49.5503 49.9584 49.5503Z" fill="#3C3C3C"/>
<path d="M58.2949 44.2068C58.2645 44.2679 58.2168 44.2984 58.1518 44.2984C58.1041 44.2984 58.0434 44.2723 57.9654 44.2155C57.8917 44.1631 57.792 44.102 57.6663 44.0321C57.5449 43.9667 57.3932 43.9055 57.2111 43.8488C57.0334 43.7964 56.8123 43.7658 56.5521 43.7658C56.318 43.7658 56.1056 43.8008 55.9149 43.8662C55.7241 43.9317 55.5594 44.0234 55.4207 44.1369C55.2863 44.2504 55.1779 44.3814 55.1042 44.5298C55.0305 44.6783 54.9915 44.8354 54.9915 45.0013C54.9915 45.2065 55.0435 45.3768 55.1476 45.5077C55.2516 45.6387 55.386 45.7566 55.5551 45.8526C55.7241 45.9487 55.9149 46.0316 56.1273 46.1015C56.3397 46.1713 56.5608 46.2412 56.7862 46.311C57.0117 46.3809 57.2284 46.4595 57.4452 46.5424C57.6576 46.6253 57.8527 46.7345 58.0174 46.8611C58.1865 46.9877 58.3209 47.1405 58.4249 47.3239C58.529 47.5072 58.581 47.7299 58.581 47.9918C58.581 48.2756 58.529 48.5375 58.4293 48.782C58.3296 49.0265 58.1822 49.236 57.9871 49.415C57.7963 49.594 57.5579 49.7337 57.2761 49.8385C56.9943 49.9433 56.6735 49.9956 56.3181 49.9956C55.8629 49.9956 55.4727 49.9214 55.1432 49.7774C54.8137 49.6333 54.519 49.4412 54.2632 49.2055L54.4106 48.9828C54.4323 48.9479 54.4539 48.9217 54.4799 48.9042C54.506 48.8868 54.545 48.878 54.5883 48.878C54.6447 48.878 54.714 48.913 54.7964 48.9828C54.8788 49.0527 54.9872 49.1269 55.1172 49.2098C55.2473 49.2884 55.412 49.367 55.6114 49.4368C55.8065 49.5067 56.0493 49.5416 56.3397 49.5416C56.6128 49.5416 56.8513 49.5023 57.0594 49.4281C57.2674 49.3539 57.4409 49.2491 57.5796 49.1181C57.7183 48.9872 57.8223 48.8344 57.896 48.6597C57.9697 48.4851 58.0044 48.2974 58.0044 48.1009C58.0044 47.8827 57.9524 47.7037 57.8484 47.5596C57.7443 47.4155 57.6099 47.2933 57.4409 47.1929C57.2718 47.0925 57.081 47.0095 56.8686 46.9397C56.6562 46.8698 56.4351 46.8 56.2053 46.7301C55.9799 46.6603 55.7588 46.5861 55.5421 46.5031C55.3296 46.4202 55.1346 46.3154 54.9698 46.1888C54.8007 46.0622 54.6664 45.9094 54.5623 45.7304C54.4583 45.5514 54.4062 45.3244 54.4062 45.0537C54.4062 44.8223 54.4539 44.5997 54.5536 44.3858C54.6533 44.1718 54.7964 43.9841 54.9785 43.8226C55.1606 43.6611 55.386 43.5345 55.6504 43.4384C55.9149 43.3424 56.2097 43.2943 56.5391 43.2943C56.9336 43.2943 57.2805 43.3511 57.5882 43.4646C57.8917 43.5781 58.1735 43.7527 58.4293 43.9928L58.2949 44.2068Z" fill="#3C3C3C"/>
<path d="M62.0752 50C61.6373 50 61.2992 49.8778 61.0564 49.6333C60.8136 49.3888 60.6922 49.0134 60.6922 48.5026V44.0627H59.7645C59.7168 44.0627 59.6778 44.0496 59.6475 44.0234C59.6171 43.9972 59.6041 43.9623 59.6041 43.9143V43.6742L60.7053 43.5956L60.857 41.273C60.8613 41.2337 60.8787 41.1988 60.9047 41.1683C60.9307 41.1377 60.9697 41.1246 61.0174 41.1246H61.3078V43.6043H63.3367V44.0671H61.3078V48.4764C61.3078 48.6554 61.3295 48.8082 61.3772 48.9348C61.4206 49.0614 61.4856 49.1705 61.5636 49.2535C61.6416 49.3364 61.737 49.3975 61.8454 49.4368C61.9538 49.4761 62.0708 49.4936 62.1965 49.4936C62.3526 49.4936 62.487 49.4718 62.5997 49.4237C62.7124 49.3801 62.8078 49.3277 62.8902 49.2753C62.9725 49.2229 63.0376 49.1705 63.0896 49.1269C63.1416 49.0832 63.1806 49.057 63.211 49.057C63.2457 49.057 63.2803 49.0789 63.315 49.1225L63.4841 49.3975C63.3194 49.5809 63.1113 49.7293 62.8598 49.8385C62.6127 49.9433 62.3483 50 62.0752 50Z" fill="#3C3C3C"/>
<path d="M67.3727 43.2943C67.7369 43.2943 68.0707 43.3555 68.3828 43.4821C68.6906 43.6087 68.9594 43.792 69.1848 44.0321C69.4102 44.2723 69.588 44.5691 69.718 44.9227C69.8437 45.2764 69.9088 45.678 69.9088 46.1364C69.9088 46.2324 69.8958 46.2979 69.8654 46.3328C69.8394 46.3678 69.7917 46.3852 69.731 46.3852H65.0751V46.5075C65.0751 46.9964 65.1314 47.4243 65.2441 47.7953C65.3569 48.1664 65.5173 48.4764 65.7253 48.7252C65.9334 48.9741 66.1849 49.1618 66.4753 49.2884C66.7701 49.415 67.0996 49.4761 67.4594 49.4761C67.7845 49.4761 68.0663 49.4412 68.3004 49.367C68.5389 49.2971 68.7383 49.2142 68.8987 49.1269C69.0591 49.0396 69.1891 48.9566 69.2845 48.8868C69.3799 48.8169 69.4492 48.7776 69.4926 48.7776C69.549 48.7776 69.5923 48.7994 69.6227 48.8431L69.7917 49.0527C69.6877 49.1836 69.5489 49.3059 69.3799 49.4194C69.2108 49.5329 69.0201 49.6289 68.8076 49.7119C68.5952 49.7948 68.3741 49.8559 68.1314 49.904C67.8929 49.952 67.6502 49.9738 67.4074 49.9738C66.9652 49.9738 66.5664 49.8952 66.2022 49.7424C65.8381 49.5896 65.5259 49.3626 65.2658 49.0658C65.0057 48.7689 64.8063 48.4065 64.6632 47.9787C64.5202 47.5509 64.4508 47.0575 64.4508 46.5075C64.4508 46.0403 64.5158 45.6125 64.6502 45.2196C64.7846 44.8267 64.971 44.4862 65.2225 44.2024C65.4696 43.9186 65.7774 43.696 66.1372 43.5345C66.5057 43.3729 66.9175 43.2943 67.3727 43.2943ZM67.3814 43.7571C67.0476 43.7571 66.7528 43.8095 66.4883 43.9143C66.2239 44.019 65.9985 44.1675 65.8034 44.3639C65.6126 44.5604 65.4566 44.7961 65.3395 45.0712C65.2225 45.3462 65.1401 45.6518 65.1011 45.9923H69.3495C69.3495 45.6431 69.3018 45.3331 69.2065 45.0537C69.1111 44.7787 68.9767 44.5429 68.8033 44.3508C68.6299 44.1587 68.4218 44.0147 68.1834 43.9099C67.9449 43.8095 67.6762 43.7571 67.3814 43.7571Z" fill="#3C3C3C"/>
<path d="M71.5692 49.8952V43.3991H71.8943C71.968 43.3991 72.02 43.4166 72.0547 43.4428C72.085 43.4733 72.1067 43.5257 72.111 43.5999L72.1631 44.9708C72.3712 44.4425 72.6486 44.0321 72.9911 43.7353C73.3379 43.4384 73.7627 43.29 74.27 43.29C74.465 43.29 74.6428 43.3118 74.8075 43.3511C74.9723 43.3904 75.1283 43.4515 75.2757 43.5301L75.1933 43.9623C75.1803 44.0321 75.137 44.0671 75.0633 44.0671C75.0373 44.0671 74.9983 44.0583 74.9549 44.0409C74.9072 44.0234 74.8465 44.0059 74.7772 43.9841C74.7078 43.9623 74.6168 43.9448 74.5127 43.9274C74.4087 43.9099 74.2916 43.9012 74.1572 43.9012C73.6674 43.9012 73.2685 44.054 72.9564 44.3596C72.6443 44.6652 72.3885 45.1061 72.1934 45.678V49.904H71.5692V49.8952Z" fill="#3C3C3C"/>
<path d="M80.2699 44.2068C80.2395 44.2679 80.1918 44.2984 80.1268 44.2984C80.0791 44.2984 80.0184 44.2723 79.9404 44.2155C79.8667 44.1631 79.767 44.102 79.6413 44.0321C79.5199 43.9667 79.3681 43.9055 79.1861 43.8488C79.0083 43.7964 78.7872 43.7658 78.5271 43.7658C78.293 43.7658 78.0806 43.8008 77.8899 43.8662C77.6991 43.9317 77.5344 44.0234 77.3956 44.1369C77.2613 44.2504 77.1529 44.3814 77.0792 44.5298C77.0055 44.6783 76.9665 44.8354 76.9665 45.0013C76.9665 45.2065 77.0185 45.3768 77.1225 45.5077C77.2266 45.6431 77.361 45.7566 77.53 45.8526C77.6991 45.9487 77.8899 46.0316 78.1023 46.1015C78.3147 46.1713 78.5358 46.2412 78.7612 46.311C78.9866 46.3809 79.2034 46.4595 79.4202 46.5424C79.6326 46.6253 79.8277 46.7345 79.9924 46.8611C80.1615 46.9877 80.2959 47.1405 80.3999 47.3239C80.504 47.5072 80.556 47.7299 80.556 47.9918C80.556 48.2756 80.504 48.5375 80.4042 48.782C80.3045 49.0265 80.1571 49.236 79.9621 49.415C79.7713 49.594 79.5329 49.7337 79.2511 49.8385C78.9693 49.9433 78.6485 49.9956 78.293 49.9956C77.8378 49.9956 77.4477 49.9214 77.1182 49.7774C76.7887 49.6333 76.4939 49.4412 76.2382 49.2055L76.3856 48.9828C76.4072 48.9479 76.4289 48.9217 76.4549 48.9042C76.4809 48.8868 76.5199 48.878 76.5633 48.878C76.6197 48.878 76.689 48.913 76.7714 48.9828C76.8537 49.0527 76.9621 49.1269 77.0922 49.2098C77.2222 49.2884 77.387 49.367 77.5864 49.4368C77.7815 49.5067 78.0242 49.5416 78.3147 49.5416C78.5878 49.5416 78.8262 49.5023 79.0343 49.4281C79.2424 49.3539 79.4158 49.2491 79.5546 49.1181C79.6933 48.9872 79.7973 48.8344 79.871 48.6597C79.9447 48.4851 79.9794 48.2974 79.9794 48.1009C79.9794 47.8827 79.9274 47.7037 79.8233 47.5596C79.7193 47.4155 79.5849 47.2933 79.4158 47.1929C79.2468 47.0925 79.056 47.0095 78.8436 46.9397C78.6312 46.8698 78.4101 46.8 78.1803 46.7301C77.9549 46.6603 77.7338 46.5861 77.517 46.5031C77.3046 46.4202 77.1095 46.3154 76.9448 46.1888C76.7757 46.0622 76.6413 45.9094 76.5373 45.7304C76.4332 45.5514 76.3812 45.3244 76.3812 45.0537C76.3812 44.8223 76.4289 44.5997 76.5286 44.3858C76.6283 44.1718 76.7714 43.9841 76.9535 43.8226C77.1355 43.6611 77.361 43.5345 77.6254 43.4384C77.8899 43.3424 78.1846 43.2943 78.5141 43.2943C78.9086 43.2943 79.2554 43.3511 79.5632 43.4646C79.8667 43.5781 80.1485 43.7527 80.4042 43.9928L80.2699 44.2068Z" fill="#3C3C3C"/>
<path d="M87.2538 43.2943C87.7176 43.2943 88.1295 43.3729 88.4936 43.5345C88.8578 43.6916 89.1656 43.9186 89.417 44.2111C89.6684 44.5036 89.8592 44.8529 89.9892 45.2676C90.1193 45.678 90.1887 46.1408 90.1887 46.6472C90.1887 47.158 90.1236 47.6164 89.9892 48.0267C89.8592 48.4371 89.6641 48.7864 89.417 49.0789C89.1656 49.3714 88.8578 49.594 88.4936 49.7512C88.1295 49.9083 87.7133 49.9869 87.2538 49.9869C86.7899 49.9869 86.3781 49.9083 86.0139 49.7512C85.6497 49.594 85.3376 49.3714 85.0862 49.0789C84.8347 48.7864 84.6397 48.4371 84.5096 48.0267C84.3795 47.6164 84.3102 47.158 84.3102 46.6472C84.3102 46.1364 84.3752 45.678 84.5096 45.2676C84.6397 44.8573 84.8347 44.5036 85.0862 44.2111C85.3376 43.9186 85.6497 43.696 86.0139 43.5345C86.3781 43.3729 86.7899 43.2943 87.2538 43.2943ZM87.2538 49.4892C87.6396 49.4892 87.9734 49.4237 88.2639 49.2884C88.55 49.1574 88.7927 48.9653 88.9835 48.7165C89.1742 48.4677 89.3216 48.1708 89.4127 47.8172C89.508 47.4679 89.5557 47.075 89.5557 46.6384C89.5557 46.2062 89.508 45.8177 89.4127 45.4641C89.3173 45.1105 89.1742 44.8092 88.9835 44.5604C88.7927 44.3115 88.55 44.1195 88.2639 43.9841C87.9777 43.8488 87.6396 43.7833 87.2538 43.7833C86.8679 43.7833 86.5341 43.8531 86.2437 43.9841C85.9575 44.1195 85.7148 44.3115 85.524 44.5604C85.3333 44.8092 85.1859 45.1105 85.0905 45.4641C84.9951 45.8177 84.9431 46.2106 84.9431 46.6384C84.9431 47.075 84.9908 47.4679 85.0905 47.8172C85.1859 48.1664 85.3333 48.4677 85.524 48.7165C85.7148 48.9653 85.9575 49.1531 86.2437 49.2884C86.5298 49.4237 86.8679 49.4892 87.2538 49.4892Z" fill="#3C3C3C"/>
<path d="M92.0485 49.8952V44.0758L91.1424 44.019C91.0167 44.0103 90.956 43.9579 90.956 43.8575V43.6043H92.0528V42.7835C92.0528 42.4125 92.1005 42.0894 92.1959 41.8056C92.2912 41.5262 92.4256 41.2905 92.599 41.1028C92.7724 40.915 92.9805 40.7753 93.2233 40.6793C93.4661 40.5876 93.7348 40.5396 94.0296 40.5396C94.164 40.5396 94.2984 40.5527 94.4371 40.5745C94.5759 40.5963 94.6929 40.6313 94.7969 40.6749L94.7796 40.9761C94.7753 41.0373 94.7319 41.0678 94.6582 41.0678C94.6062 41.0678 94.5368 41.0591 94.4458 41.046C94.3591 41.0329 94.2464 41.0285 94.1207 41.0285C93.9082 41.0285 93.7132 41.0591 93.5354 41.1246C93.3577 41.1857 93.2016 41.2905 93.0716 41.4302C92.9415 41.5699 92.8418 41.7532 92.7681 41.9759C92.6987 42.1985 92.6597 42.4736 92.6597 42.801V43.6043H94.7536V44.067H92.6727V49.8996H92.0485V49.8952Z" fill="#3C3C3C"/>
<path d="M103.376 47.5945C103.402 47.5247 103.428 47.4548 103.459 47.3893C103.485 47.3238 103.519 47.2584 103.554 47.1972L107.161 40.7797C107.195 40.723 107.23 40.688 107.265 40.6749C107.3 40.6618 107.347 40.6531 107.408 40.6531H107.867V49.8909H107.282V42.0196C107.282 41.9061 107.291 41.7882 107.3 41.6616L103.688 48.1184C103.628 48.2319 103.541 48.2887 103.428 48.2887H103.324C103.216 48.2887 103.129 48.2319 103.064 48.1184L99.3575 41.6528C99.3705 41.7794 99.3749 41.9017 99.3749 42.0196V49.8952H98.7983V40.6575H99.2535C99.3142 40.6575 99.3618 40.6662 99.4009 40.6793C99.4355 40.6924 99.4746 40.7273 99.5092 40.7841L103.211 47.2103C103.272 47.3282 103.329 47.4592 103.376 47.5945Z" fill="#3C3C3C"/>
<path d="M112.71 43.2943C113.074 43.2943 113.408 43.3555 113.72 43.4821C114.028 43.6087 114.296 43.792 114.526 44.0321C114.756 44.2723 114.929 44.5691 115.059 44.9227C115.185 45.2764 115.25 45.678 115.25 46.1364C115.25 46.2324 115.237 46.2979 115.207 46.3328C115.181 46.3678 115.133 46.3852 115.072 46.3852H110.417V46.5075C110.417 46.9964 110.473 47.4243 110.586 47.7953C110.698 48.1664 110.859 48.4764 111.067 48.7252C111.275 48.9741 111.526 49.1618 111.817 49.2884C112.112 49.415 112.441 49.4761 112.801 49.4761C113.126 49.4761 113.408 49.4412 113.642 49.367C113.88 49.2971 114.08 49.2142 114.24 49.1269C114.401 49.0396 114.531 48.9566 114.626 48.8868C114.721 48.8169 114.791 48.7776 114.834 48.7776C114.89 48.7776 114.934 48.7994 114.964 48.8431L115.133 49.0527C115.029 49.1836 114.89 49.3059 114.721 49.4194C114.552 49.5329 114.361 49.6289 114.149 49.7119C113.937 49.7948 113.716 49.8559 113.473 49.904C113.234 49.952 112.992 49.9738 112.749 49.9738C112.307 49.9738 111.908 49.8952 111.544 49.7424C111.179 49.5896 110.867 49.3626 110.607 49.0658C110.347 48.7689 110.148 48.4065 110.005 47.9787C109.862 47.5509 109.792 47.0575 109.792 46.5075C109.792 46.0403 109.857 45.6125 109.992 45.2196C110.122 44.8267 110.312 44.4862 110.564 44.2024C110.811 43.9186 111.119 43.696 111.479 43.5345C111.838 43.3729 112.25 43.2943 112.71 43.2943ZM112.718 43.7571C112.385 43.7571 112.09 43.8095 111.825 43.9143C111.561 44.019 111.336 44.1675 111.14 44.3639C110.95 44.5604 110.794 44.7961 110.672 45.0712C110.555 45.3462 110.473 45.6518 110.438 45.9923H114.687C114.687 45.6431 114.639 45.3331 114.544 45.0537C114.448 44.7787 114.314 44.5429 114.14 44.3508C113.967 44.1587 113.759 44.0147 113.52 43.9099C113.278 43.8095 113.009 43.7571 112.718 43.7571Z" fill="#3C3C3C"/>
<path d="M121.02 49.8952C120.89 49.8952 120.812 49.8341 120.782 49.7118L120.691 48.8824C120.513 49.057 120.335 49.2142 120.162 49.3539C119.989 49.4936 119.802 49.6114 119.616 49.7075C119.425 49.8035 119.221 49.8777 119 49.9258C118.779 49.9738 118.536 50 118.276 50C118.055 50 117.843 49.9694 117.635 49.9039C117.426 49.8385 117.244 49.738 117.084 49.6027C116.924 49.4674 116.794 49.2927 116.698 49.0832C116.603 48.8736 116.551 48.6204 116.551 48.3236C116.551 48.0485 116.629 47.7953 116.785 47.5596C116.941 47.3238 117.184 47.1186 117.513 46.944C117.843 46.7694 118.272 46.6297 118.792 46.5249C119.312 46.4201 119.941 46.359 120.669 46.3416V45.6605C120.669 45.058 120.539 44.5953 120.283 44.2722C120.028 43.9492 119.646 43.7876 119.139 43.7876C118.827 43.7876 118.562 43.8313 118.346 43.9186C118.129 44.0059 117.942 44.102 117.791 44.2067C117.639 44.3115 117.518 44.4076 117.422 44.4949C117.327 44.5822 117.249 44.6258 117.184 44.6258C117.097 44.6258 117.032 44.5866 116.989 44.508L116.88 44.3202C117.218 43.9797 117.574 43.7221 117.942 43.5475C118.311 43.3729 118.736 43.2856 119.208 43.2856C119.555 43.2856 119.859 43.3423 120.114 43.4515C120.374 43.5606 120.587 43.7222 120.76 43.9273C120.929 44.1325 121.059 44.3857 121.146 44.6782C121.233 44.9707 121.276 45.2982 121.276 45.6605V49.8908H121.02V49.8952ZM118.428 49.5503C118.679 49.5503 118.909 49.5241 119.117 49.4674C119.325 49.415 119.52 49.3364 119.702 49.2404C119.88 49.1443 120.049 49.0264 120.205 48.8911C120.361 48.7558 120.513 48.6117 120.665 48.4545V46.765C120.049 46.7825 119.525 46.8305 119.078 46.9047C118.636 46.9789 118.272 47.0837 117.981 47.2147C117.695 47.3457 117.483 47.5028 117.344 47.6818C117.21 47.8608 117.14 48.0704 117.14 48.2974C117.14 48.5157 117.175 48.7034 117.249 48.8605C117.322 49.0177 117.413 49.1487 117.531 49.2535C117.648 49.3539 117.782 49.4324 117.938 49.4805C118.094 49.5241 118.259 49.5503 118.428 49.5503Z" fill="#3C3C3C"/>
<path d="M126.764 44.2068C126.734 44.2679 126.686 44.2984 126.621 44.2984C126.574 44.2984 126.513 44.2723 126.435 44.2155C126.361 44.1631 126.262 44.102 126.136 44.0321C126.014 43.9667 125.863 43.9055 125.681 43.8488C125.503 43.7964 125.282 43.7658 125.022 43.7658C124.788 43.7658 124.575 43.8008 124.384 43.8662C124.194 43.9317 124.029 44.0234 123.89 44.1369C123.756 44.2504 123.647 44.3814 123.574 44.5298C123.5 44.6783 123.461 44.8354 123.461 45.0013C123.461 45.2065 123.513 45.3768 123.617 45.5077C123.721 45.6431 123.856 45.7566 124.025 45.8526C124.194 45.9487 124.384 46.0316 124.597 46.1015C124.809 46.1713 125.03 46.2412 125.256 46.311C125.481 46.3809 125.698 46.4595 125.915 46.5424C126.127 46.6253 126.318 46.7345 126.487 46.8611C126.656 46.9877 126.79 47.1405 126.894 47.3239C126.999 47.5072 127.051 47.7299 127.051 47.9918C127.051 48.2756 126.999 48.5375 126.899 48.782C126.799 49.0265 126.652 49.236 126.457 49.415C126.262 49.594 126.027 49.7337 125.746 49.8385C125.464 49.9433 125.143 49.9956 124.788 49.9956C124.332 49.9956 123.942 49.9214 123.613 49.7774C123.283 49.6333 122.993 49.4412 122.733 49.2055L122.88 48.9828C122.902 48.9479 122.928 48.9217 122.954 48.9042C122.98 48.8868 123.015 48.878 123.062 48.878C123.119 48.878 123.188 48.913 123.27 48.9828C123.353 49.0527 123.461 49.1269 123.591 49.2098C123.721 49.2884 123.886 49.367 124.085 49.4368C124.28 49.5067 124.523 49.5416 124.814 49.5416C125.087 49.5416 125.325 49.5023 125.533 49.4281C125.741 49.3539 125.915 49.2491 126.053 49.1181C126.192 48.9872 126.296 48.8344 126.37 48.6597C126.439 48.4851 126.478 48.2974 126.478 48.1009C126.478 47.8827 126.426 47.7037 126.322 47.5596C126.218 47.4155 126.084 47.2933 125.915 47.1929C125.746 47.0925 125.555 47.0095 125.343 46.9397C125.13 46.8698 124.909 46.8 124.679 46.7301C124.454 46.6603 124.233 46.5861 124.016 46.5031C123.804 46.4202 123.613 46.3154 123.444 46.1888C123.275 46.0622 123.14 45.9094 123.036 45.7304C122.932 45.5514 122.88 45.3244 122.88 45.0537C122.88 44.8223 122.928 44.5997 123.028 44.3858C123.127 44.1718 123.27 43.9841 123.452 43.8226C123.634 43.6611 123.86 43.5345 124.124 43.4384C124.389 43.3424 124.684 43.2943 125.013 43.2943C125.408 43.2943 125.754 43.3511 126.062 43.4646C126.366 43.5781 126.647 43.7527 126.903 43.9928L126.764 44.2068Z" fill="#3C3C3C"/>
<path d="M129.24 43.3991V47.5509C129.24 48.1621 129.379 48.6379 129.656 48.9828C129.933 49.3277 130.358 49.5023 130.926 49.5023C131.347 49.5023 131.741 49.3932 132.105 49.1793C132.47 48.9653 132.799 48.6641 133.089 48.2799V43.3991H133.705V49.8952H133.367C133.245 49.8952 133.185 49.8385 133.18 49.725L133.12 48.7601C132.821 49.1356 132.474 49.4368 132.084 49.6595C131.693 49.8865 131.256 50 130.774 50C130.415 50 130.102 49.9432 129.834 49.8297C129.565 49.7162 129.344 49.5547 129.166 49.3408C128.988 49.1269 128.854 48.8693 128.763 48.5724C128.672 48.2712 128.629 47.9307 128.629 47.5552V43.4035H129.24V43.3991Z" fill="#3C3C3C"/>
<path d="M135.803 49.8952V43.3991H136.128C136.202 43.3991 136.254 43.4166 136.289 43.4428C136.319 43.4733 136.341 43.5257 136.345 43.5999L136.397 44.9708C136.605 44.4425 136.883 44.0321 137.225 43.7353C137.572 43.4384 137.997 43.29 138.504 43.29C138.699 43.29 138.877 43.3118 139.042 43.3511C139.206 43.3904 139.362 43.4515 139.51 43.5301L139.427 43.9623C139.414 44.0321 139.371 44.0671 139.297 44.0671C139.271 44.0671 139.232 44.0583 139.189 44.0409C139.141 44.0234 139.081 44.0059 139.011 43.9841C138.942 43.9623 138.851 43.9448 138.747 43.9274C138.643 43.9099 138.526 43.9012 138.391 43.9012C137.901 43.9012 137.503 44.054 137.19 44.3596C136.878 44.6652 136.623 45.1061 136.427 45.678V49.904H135.803V49.8952Z" fill="#3C3C3C"/>
<path d="M143.381 43.2943C143.745 43.2943 144.079 43.3555 144.391 43.4821C144.699 43.6087 144.968 43.792 145.197 44.0321C145.423 44.2723 145.601 44.5691 145.731 44.9227C145.856 45.2764 145.921 45.678 145.921 46.1364C145.921 46.2324 145.908 46.2979 145.878 46.3328C145.852 46.3678 145.804 46.3852 145.744 46.3852H141.088V46.5075C141.088 46.9964 141.144 47.4243 141.257 47.7953C141.37 48.1664 141.53 48.4764 141.738 48.7252C141.946 48.9741 142.198 49.1618 142.488 49.2884C142.783 49.415 143.112 49.4761 143.472 49.4761C143.797 49.4761 144.079 49.4412 144.313 49.367C144.552 49.2971 144.751 49.2142 144.911 49.1269C145.072 49.0396 145.202 48.9566 145.297 48.8868C145.393 48.8169 145.462 48.7776 145.505 48.7776C145.562 48.7776 145.605 48.7994 145.635 48.8431L145.804 49.0527C145.7 49.1836 145.562 49.3059 145.393 49.4194C145.224 49.5329 145.033 49.6289 144.82 49.7119C144.608 49.7948 144.387 49.8559 144.144 49.904C143.906 49.952 143.663 49.9738 143.42 49.9738C142.978 49.9738 142.579 49.8952 142.215 49.7424C141.851 49.5896 141.539 49.3626 141.279 49.0658C141.018 48.7689 140.819 48.4065 140.676 47.9787C140.533 47.5509 140.464 47.0575 140.464 46.5075C140.464 46.0403 140.529 45.6125 140.663 45.2196C140.793 44.8267 140.984 44.4862 141.235 44.2024C141.482 43.9186 141.79 43.696 142.15 43.5345C142.514 43.3729 142.926 43.2943 143.381 43.2943ZM143.39 43.7571C143.056 43.7571 142.761 43.8095 142.497 43.9143C142.232 44.019 142.007 44.1675 141.812 44.3639C141.621 44.5604 141.465 44.7961 141.344 45.0712C141.226 45.3462 141.144 45.6518 141.109 45.9923H145.358C145.358 45.6431 145.31 45.3331 145.215 45.0537C145.119 44.7787 144.985 44.5429 144.812 44.3508C144.638 44.1587 144.43 44.0147 144.192 43.9099C143.953 43.8095 143.685 43.7571 143.39 43.7571Z" fill="#3C3C3C"/>
<path d="M147.578 49.8952V43.3991H147.916C148.028 43.3991 148.093 43.4559 148.111 43.5606L148.167 44.4993C148.293 44.3203 148.427 44.1587 148.57 44.0103C148.713 43.8619 148.865 43.7353 149.025 43.6305C149.186 43.5257 149.359 43.4428 149.546 43.3817C149.728 43.3249 149.923 43.2943 150.127 43.2943C150.599 43.2943 150.972 43.434 151.254 43.7091C151.536 43.9841 151.726 44.3683 151.826 44.8616C151.904 44.5909 152.012 44.3596 152.151 44.1631C152.29 43.9667 152.45 43.8051 152.632 43.6785C152.814 43.5519 153.009 43.4559 153.226 43.3904C153.439 43.3293 153.66 43.2943 153.885 43.2943C154.206 43.2943 154.492 43.3467 154.748 43.4559C155.004 43.5606 155.22 43.7222 155.398 43.9274C155.576 44.1369 155.715 44.3945 155.81 44.7001C155.905 45.0057 155.953 45.3549 155.953 45.7435V49.8952H155.337V45.7435C155.337 45.1061 155.203 44.6215 154.93 44.2897C154.657 43.9579 154.267 43.792 153.764 43.792C153.538 43.792 153.326 43.8313 153.118 43.9143C152.914 43.9972 152.732 44.1195 152.572 44.2854C152.416 44.4469 152.29 44.6521 152.194 44.8965C152.103 45.141 152.056 45.4248 152.056 45.7435V49.8952H151.44V45.7435C151.44 45.1105 151.314 44.6302 151.063 44.2941C150.812 43.9579 150.447 43.792 149.966 43.792C149.615 43.792 149.29 43.8968 148.995 44.1107C148.696 44.3203 148.432 44.6128 148.197 44.9882V49.8996H147.578V49.8952Z" fill="#3C3C3C"/>
<path d="M160.323 43.2943C160.687 43.2943 161.021 43.3555 161.333 43.4821C161.641 43.6087 161.91 43.792 162.135 44.0321C162.36 44.2723 162.538 44.5691 162.668 44.9227C162.794 45.2764 162.859 45.678 162.859 46.1364C162.859 46.2324 162.846 46.2979 162.816 46.3328C162.79 46.3678 162.742 46.3852 162.681 46.3852H158.025V46.5075C158.025 46.9964 158.082 47.4243 158.194 47.7953C158.307 48.1664 158.467 48.4764 158.676 48.7252C158.884 48.9741 159.135 49.1618 159.426 49.2884C159.72 49.415 160.05 49.4761 160.41 49.4761C160.735 49.4761 161.017 49.4412 161.251 49.367C161.489 49.2971 161.688 49.2142 161.849 49.1269C162.009 49.0396 162.139 48.9566 162.235 48.8868C162.33 48.8169 162.399 48.7776 162.443 48.7776C162.499 48.7776 162.543 48.7994 162.573 48.8431L162.742 49.0527C162.638 49.1836 162.499 49.3059 162.33 49.4194C162.161 49.5329 161.97 49.6289 161.758 49.7119C161.545 49.7948 161.324 49.8559 161.082 49.904C160.843 49.952 160.6 49.9738 160.358 49.9738C159.915 49.9738 159.517 49.8952 159.152 49.7424C158.788 49.5896 158.476 49.3626 158.216 49.0658C157.956 48.7689 157.756 48.4065 157.613 47.9787C157.47 47.5509 157.401 47.0575 157.401 46.5075C157.401 46.0403 157.466 45.6125 157.6 45.2196C157.735 44.8267 157.921 44.4862 158.173 44.2024C158.42 43.9186 158.728 43.696 159.087 43.5345C159.456 43.3729 159.868 43.2943 160.323 43.2943ZM160.336 43.7571C160.002 43.7571 159.707 43.8095 159.443 43.9143C159.178 44.019 158.953 44.1675 158.758 44.3639C158.567 44.5604 158.411 44.7961 158.294 45.0712C158.177 45.3462 158.095 45.6518 158.056 45.9923H162.304C162.304 45.6431 162.256 45.3331 162.161 45.0537C162.066 44.7787 161.931 44.5429 161.758 44.3508C161.584 44.1587 161.376 44.0147 161.138 43.9099C160.895 43.8095 160.626 43.7571 160.336 43.7571Z" fill="#3C3C3C"/>
<path d="M164.519 49.8952V43.3991H164.858C164.97 43.3991 165.035 43.4559 165.053 43.5606L165.109 44.5386C165.404 44.1631 165.746 43.8619 166.136 43.6349C166.527 43.4078 166.964 43.29 167.441 43.29C167.797 43.29 168.109 43.3467 168.378 43.4602C168.646 43.5737 168.872 43.7353 169.05 43.9492C169.227 44.1631 169.362 44.4207 169.453 44.7219C169.544 45.0231 169.587 45.3637 169.587 45.7391V49.8909H168.972V45.7391C168.972 45.1279 168.833 44.6521 168.555 44.3072C168.278 43.9623 167.853 43.7877 167.285 43.7877C166.86 43.7877 166.47 43.8968 166.106 44.1195C165.742 44.3377 165.421 44.639 165.135 45.0231V49.8952H164.519Z" fill="#3C3C3C"/>
<path d="M173.289 50C172.851 50 172.513 49.8778 172.271 49.6333C172.028 49.3888 171.906 49.0134 171.906 48.5026V44.0627H170.979C170.931 44.0627 170.892 44.0496 170.862 44.0234C170.831 43.9972 170.814 43.9623 170.814 43.9143V43.6742L171.915 43.5956L172.071 41.273C172.076 41.2337 172.093 41.1988 172.119 41.1683C172.145 41.1377 172.184 41.1246 172.232 41.1246H172.522V43.6043H174.551V44.0671H172.522V48.4764C172.522 48.6554 172.544 48.8082 172.591 48.9348C172.639 49.0614 172.7 49.1705 172.778 49.2535C172.856 49.3364 172.951 49.3975 173.06 49.4368C173.168 49.4761 173.285 49.4936 173.411 49.4936C173.567 49.4936 173.701 49.4718 173.814 49.4237C173.927 49.3801 174.022 49.3277 174.104 49.2753C174.187 49.2229 174.252 49.1705 174.304 49.1269C174.356 49.0832 174.395 49.057 174.425 49.057C174.46 49.057 174.495 49.0789 174.529 49.1225L174.698 49.3975C174.534 49.5809 174.325 49.7293 174.074 49.8385C173.827 49.9433 173.562 50 173.289 50Z" fill="#3C3C3C"/>
<path d="M13.4043 0C13.4043 0 0 14.0356 0 23.627C0 31.0836 6.00419 37.1256 13.4043 37.1256C20.8044 37.1256 26.8086 31.0836 26.8086 23.627C26.8086 14.1055 13.4043 0 13.4043 0ZM13.4043 31.8126C8.91742 31.8126 5.27589 28.1498 5.27589 23.627C5.27589 17.5718 13.4043 7.7054 13.4043 7.7054C13.4043 7.7054 21.5327 17.6024 21.5327 23.627C21.5327 28.1455 17.8955 31.8126 13.4043 31.8126Z" fill="url(#paint0_linear_27_123)"/>
<path d="M7.94201 29.6909C7.93767 29.6866 7.93334 29.6822 7.929 29.6778C7.89432 29.6429 7.85531 29.608 7.82063 29.573C6.25563 28.08 5.27589 25.9714 5.27589 23.627C5.27589 17.6984 13.0575 8.12888 13.3913 7.71851L10.1096 3.77194C6.14292 8.6091 0 17.1353 0 23.627C0 31.0836 5.99986 37.1257 13.4043 37.1257C18.1036 37.1257 22.235 34.6896 24.628 31.0094C22.4821 32.4762 19.894 33.3363 17.1022 33.3363C13.5604 33.3363 10.3394 31.948 7.94201 29.6909Z" fill="url(#paint1_linear_27_123)"/>
</g>
<defs>
<linearGradient id="paint0_linear_27_123" x1="17.7389" y1="16.9814" x2="9.24332" y2="25.1473" gradientUnits="userSpaceOnUse">
<stop stop-color="#0096D7"/>
<stop offset="0.2264" stop-color="#0082C5"/>
<stop offset="0.7355" stop-color="#005A9F"/>
<stop offset="1" stop-color="#004B91"/>
</linearGradient>
<linearGradient id="paint1_linear_27_123" x1="20.4482" y1="11.3515" x2="12.5726" y2="24.4176" gradientUnits="userSpaceOnUse">
<stop stop-color="#004B91"/>
<stop offset="1" stop-color="#0096D7"/>
</linearGradient>
<clipPath id="clip0_27_123">
<rect width="250" height="50" fill="white"/>
</clipPath>
</defs>
</svg>
